<?xml version="1.0" standalone="no"?>
<!DOCTYPE svg PUBLIC "-//W3C//DTD SVG 20010904//EN"
 "http://www.w3.org/TR/2001/REC-SVG-20010904/DTD/svg10.dtd">
<svg version="1.0" xmlns="http://www.w3.org/2000/svg"
 width="121.000000pt" height="48.000000pt" viewBox="0 0 121.000000 48.000000"
 preserveAspectRatio="xMidYMid meet">

<g transform="translate(0.000000,48.000000) scale(0.100000,-0.100000)"
fill="#000000" stroke="none">
<path d="M100 353 c0 -4 17 -56 37 -115 l38 -108 35 0 36 0 37 108 c21 59 37
111 37 115 0 5 -12 7 -27 5 -24 -3 -30 -11 -52 -80 -14 -43 -28 -78 -31 -78
-3 0 -16 35 -30 78 -23 69 -28 77 -52 80 -16 2 -28 0 -28 -5z"/>
<path d="M400 342 c-41 -20 -60 -53 -60 -105 0 -31 7 -46 34 -73 36 -36 78
-44 130 -24 30 11 66 65 66 98 0 43 -31 94 -66 108 -44 18 -62 18 -104 -4z"/>
<path d="M590 355 c0 -3 16 -29 35 -57 l35 -52 -19 -31 c-10 -18 -26 -44 -36
-58 l-17 -27 30 0 c24 0 35 7 49 30 9 17 21 30 25 30 4 0 15 -13 25 -30 14
-24 24 -30 50 -30 l34 0 -36 52 c-19 29 -35 56 -35 60 0 4 14 29 30 55 36 57
37 63 5 63 -19 0 -31 -10 -46 -35 -12 -19 -22 -35 -24 -35 -2 0 -13 16 -25 35
-17 27 -28 35 -51 35 -16 0 -29 -2 -29 -5z m128 -60 c24 31 29 14 8 -25 -12
-21 -12 -29 6 -63 24 -49 17 -58 -12 -17 l-22 31 -29 -33 c-33 -39 -37 -32 -9
21 10 21 17 40 15 43 -2 2 -11 22 -20 44 l-16 39 29 -34 29 -34 21 28z"/>
<path d="M830 245 l0 -115 60 0 c53 0 60 2 60 20 0 16 -7 20 -35 20 l-35 0 0
95 c0 95 0 95 -25 95 l-25 0 0 -115z m32 3 l3 -83 30 -3 c17 -2 35 -8 40 -14
7 -7 -1 -9 -25 -4 -54 9 -70 36 -70 117 0 97 19 86 22 -13z"/>
<path d="M970 350 c0 -6 16 -42 35 -80 20 -40 35 -84 35 -105 0 -32 2 -35 30
-35 28 0 30 2 30 40 0 26 12 65 35 110 19 38 35 72 35 75 0 3 -13 5 -28 5 -24
0 -32 -8 -51 -47 l-23 -48 -24 48 c-19 37 -30 47 -49 47 -14 0 -25 -5 -25 -10z"/>
</g>
</svg>
